<?xml version="1.0" standalone="no"?>
<!DOCTYPE svg PUBLIC "-//W3C//DTD SVG 20010904//EN"
 "http://www.w3.org/TR/2001/REC-SVG-20010904/DTD/svg10.dtd">
<svg version="1.0" xmlns="http://www.w3.org/2000/svg"
 width="700.000000pt" height="700.000000pt" viewBox="0 0 700.000000 700.000000"
 preserveAspectRatio="xMidYMid meet">
<metadata>
Created by potrace 1.14, written by Peter Selinger 2001-2017
</metadata>
<g transform="translate(0.000000,700.000000) scale(0.100000,-0.100000)"
fill="#000000" stroke="none">
<path d="M3255 6989 c-44 -5 -118 -15 -165 -23 -47 -9 -97 -17 -111 -20 -42
-7 -216 -55 -299 -83 -141 -47 -360 -148 -475 -218 -65 -40 -171 -109 -175
-115 -3 -3 -21 -17 -40 -30 -77 -52 -144 -116 -161 -154 -56 -123 17 -274 146
-302 77 -17 134 1 227 74 141 110 294 199 508 295 83 37 226 79 396 117 174
39 494 46 694 15 14 -2 45 -7 70 -10 24 -4 47 -8 51 -10 3 -2 20 -7 38 -10
140 -25 374 -112 537 -200 425 -232 739 -574 944 -1030 66 -147 140 -426 155
-586 4 -36 8 -79 10 -95 2 -16 4 -589 5 -1274 1 -1190 1 -1247 19 -1286 25
-55 49 -82 91 -104 115 -59 246 -17 301 96 l22 47 0 1226 c0 1179 -3 1331 -24
1486 -14 104 -18 124 -35 200 -202 914 -887 1647 -1784 1907 -88 25 -272 64
-345 73 -32 4 -68 9 -80 12 -37 8 -439 10 -520 2z"/>
<path d="M1375 5751 c-25 -9 -61 -31 -79 -49 -32 -31 -111 -178 -157 -293 -66
-166 -138 -425 -155 -559 -9 -75 -17 -127 -22 -145 -3 -11 -6 -603 -7 -1315
-2 -1419 -5 -1345 57 -1409 45 -46 85 -64 148 -67 89 -4 158 37 203 121 l21
40 2 1265 c1 696 4 1279 7 1295 3 17 9 59 12 95 4 36 9 72 10 80 2 8 11 49 19
90 35 161 83 298 178 504 46 98 50 113 45 161 -9 85 -44 137 -118 175 -50 26
-110 30 -164 11z"/>
<path d="M2634 5169 c-265 -90 -338 -405 -139 -603 131 -132 365 -128 498 8
172 174 126 465 -91 575 -77 39 -189 48 -268 20z"/>
<path d="M4170 5176 c-70 -19 -117 -45 -165 -91 -137 -134 -146 -353 -19 -494
80 -89 174 -127 297 -119 334 21 451 453 177 650 -79 56 -197 78 -290 54z"/>
<path d="M3428 2965 c-49 -16 -91 -52 -120 -100 l-23 -40 0 -1065 c0 -993 1
-1067 17 -1101 20 -41 77 -95 116 -110 104 -40 222 7 272 107 l24 49 1 1030
c0 567 -3 1048 -8 1070 -25 125 -160 201 -279 160z"/>
<path d="M125 2851 c-23 -10 -53 -33 -68 -51 -60 -71 -59 -49 -54 -710 2 -333
7 -616 10 -630 4 -14 10 -41 13 -60 3 -19 21 -82 40 -140 61 -182 151 -327
294 -470 221 -221 489 -341 795 -356 106 -6 112 -5 165 23 41 21 62 40 85 77
58 96 29 232 -64 291 -41 25 -67 31 -171 40 -102 9 -116 12 -187 35 -234 74
-430 266 -508 495 -39 115 -42 180 -43 735 0 295 -3 555 -7 578 -8 51 -65 118
-119 143 -52 24 -130 24 -181 0z"/>
<path d="M2130 2848 c-48 -26 -94 -80 -108 -126 -8 -26 -12 -212 -13 -607 -1
-523 -2 -576 -20 -648 -32 -133 -96 -248 -209 -373 -50 -56 -73 -114 -69 -177
6 -108 98 -195 211 -198 70 -2 121 26 198 108 174 186 286 429 316 688 4 33 8
305 8 604 1 579 -1 614 -47 671 -12 16 -43 40 -69 55 -58 32 -142 33 -198 3z"/>
<path d="M4698 2860 c-49 -15 -104 -67 -127 -121 l-22 -51 4 -601 c4 -649 4
-642 62 -819 89 -275 285 -518 540 -670 120 -72 274 -128 422 -153 91 -15 320
-15 403 0 240 44 460 156 633 322 136 130 215 247 298 438 17 41 58 182 64
225 4 25 10 54 12 65 9 36 9 1169 1 1210 -12 52 -41 93 -92 130 -37 27 -49 30
-117 30 -65 0 -81 -4 -117 -27 -22 -15 -54 -49 -69 -75 l-28 -48 -1 -561 c-2
-597 -5 -653 -51 -774 -120 -321 -415 -522 -758 -515 -56 1 -131 10 -170 19
-297 75 -529 319 -586 617 -9 45 -13 228 -14 634 -1 524 -3 573 -19 607 -49
102 -160 151 -268 118z"/>
</g>
</svg>
